<?xml version="1.0" encoding="UTF-8" standalone="no"?>
<!DOCTYPE svg PUBLIC "-//W3C//DTD SVG 1.1//EN" "http://www.w3.org/Graphics/SVG/1.1/DTD/svg11.dtd">
<svg version="1.1" xmlns="http://www.w3.org/2000/svg" xmlns:xlink="http://www.w3.org/1999/xlink" preserveAspectRatio="xMidYMid meet" viewBox="115.80787568666834 67.8405797101448 416.3842486266633 86.31884057971052" width="412.38" height="82.32"><defs><path d="M116.81 142.14L171.72 142.14L171.72 151.16L116.81 151.16L116.81 151.16L116.81 142.14ZM487.53 151.16L487.53 121.38L517.21 68.84L529.19 68.84L497.77 121.38L497.77 151.16L497.77 151.16L487.53 151.16ZM389.11 88.92L399.87 88.92L399.87 151.16L389.11 151.16L389.11 151.16L389.11 88.92ZM267.96 68.84L279.24 68.84L245.56 151.16L235.67 151.16L235.67 151.16L267.96 68.84ZM314.78 68.84L324.85 68.84L324.85 151.16L314.78 151.16L314.78 151.16L314.78 68.84ZM202.86 68.84L213.79 68.84L235.67 124.96L230.46 136.42L230.46 136.42L202.86 68.84ZM126.79 131.64L116.81 131.64L116.81 105.23L165.6 105.23L165.6 113.45L126.79 113.45L126.79 113.45L126.79 131.64ZM456.1 68.84L467.73 68.84L487.53 102.11L481.45 112.18L481.45 112.18L456.1 68.84ZM126.79 94.12L116.81 94.12L116.81 68.84L171.72 68.84L171.72 78.34L126.79 78.34L126.79 78.34L126.79 94.12ZM360.81 68.84L427.82 68.84L427.82 78.15L360.81 78.15L360.81 78.15L360.81 68.84Z" id="gM5RDGijH"></path></defs><g><g><use xlink:href="#gM5RDGijH" opacity="1" fill="#000000" fill-opacity="1"></use><g><use xlink:href="#gM5RDGijH" opacity="1" fill-opacity="0" stroke="#000000" stroke-width="1" stroke-opacity="1"></use></g></g></g></svg>